<svg width="25" height="22" viewBox="0 0 25 22" fill="none" xmlns="http://www.w3.org/2000/svg">
<path d="M20.8333 5.49999C21.4375 5.49999 21.9271 5.68333 22.3125 6.04083C22.7083 6.41666 22.9167 6.82916 22.9167 7.33333V17.4167C22.9167 17.9208 22.7083 18.3333 22.3125 18.7092C21.9271 19.0667 21.4375 19.25 20.8333 19.25H4.16666C3.56249 19.25 3.07291 19.0667 2.68749 18.7092C2.29166 18.3333 2.08333 17.9208 2.08333 17.4167V7.33333C2.08333 6.82916 2.29166 6.41666 2.68749 6.04083C3.07291 5.68333 3.56249 5.49999 4.16666 5.49999H8.33333V3.66666C8.33333 3.13499 8.54166 2.70416 8.93749 2.36499C9.32291 2.01666 9.81249 1.83333 10.4167 1.83333H14.5833C15.1875 1.83333 15.6771 2.01666 16.0625 2.36499C16.4583 2.70416 16.6667 3.13499 16.6667 3.66666V5.49999H20.8333ZM4.16666 7.33333V17.4167H20.8333V7.33333H4.16666ZM14.5833 5.49999V3.66666H10.4167V5.49999H14.5833Z" fill="#BB6BD9"/>
</svg>
