<svg width="65" height="61" viewBox="0 0 65 61" fill="none" xmlns="http://www.w3.org/2000/svg">
<path d="M50.2298 59.6569C50.7405 60.3787 51.7403 60.5576 52.4415 60.0189C57.4175 56.1956 61.1722 51.0141 63.2307 45.0981C65.4635 38.6813 65.5861 31.7297 63.581 25.2396C61.5759 18.7496 57.546 13.0543 52.069 8.97009C46.5919 4.88584 39.9488 2.62228 33.0919 2.50384C26.2349 2.3854 19.516 4.41815 13.8983 8.31077C8.28051 12.2034 4.05225 17.756 1.8195 24.1728C-0.413252 30.5897 -0.535868 37.5412 1.46923 44.0313C3.31777 50.0146 6.88726 55.3224 11.7251 59.3151C12.4072 59.8781 13.4128 59.7341 13.9486 59.0305C14.4921 58.3167 14.3455 57.3 13.6574 56.7244C9.37834 53.1452 6.21963 48.4156 4.57481 43.0917C2.77023 37.2507 2.88059 30.9942 4.89006 25.2191C6.89954 19.444 10.705 14.4466 15.761 10.9432C20.8169 7.43988 26.8639 5.6104 33.0352 5.717C39.2065 5.82359 45.1852 7.8608 50.1146 11.5366C55.044 15.2125 58.6708 20.3382 60.4754 26.1792C62.28 32.0202 62.1696 38.2767 60.1602 44.0518C58.3284 49.3161 55.0044 53.9342 50.6012 57.3634C49.8938 57.9144 49.7118 58.9249 50.2298 59.6569Z" fill="#E9EDF0"/>
<path d="M15.9658 58.309C14.2991 60.3135 11.3009 60.6223 9.51551 58.7228C5.69088 54.6537 2.87921 49.7278 1.33964 44.3375C-0.630579 37.4395 -0.42339 30.1103 1.93344 23.332C4.29027 16.5537 8.68417 10.6501 14.5264 6.41211C19.0907 3.10116 24.3687 0.930431 29.9124 0.0513225C32.4941 -0.358077 34.6766 1.73756 34.7445 4.35064C34.8125 6.96571 32.7288 9.09741 30.1682 9.63272C26.5784 10.3832 23.1718 11.882 20.1838 14.0495C15.9148 17.1462 12.7042 21.46 10.982 26.413C9.25986 31.3659 9.10846 36.7214 10.5481 41.7619C11.5475 45.2609 13.2804 48.4921 15.6141 51.2544C17.3211 53.2749 17.6569 56.2751 15.9658 58.309Z" fill="#3A5AFE"/>
<ellipse opacity="0.9" cx="32.5251" cy="21.065" rx="5.99555" ry="5.93308" fill="#ECEAF8"/>
<path d="M32.654 18.0516C33.0579 18.0516 33.4452 18.2104 33.7308 18.493C34.0164 18.7756 34.1769 19.1589 34.1769 19.5586C34.1769 19.9583 34.0164 20.3417 33.7308 20.6243C33.4452 20.9069 33.0579 21.0657 32.654 21.0657C32.2501 21.0657 31.8627 20.9069 31.5771 20.6243C31.2915 20.3417 31.131 19.9583 31.131 19.5586C31.131 19.1589 31.2915 18.7756 31.5771 18.493C31.8627 18.2104 32.2501 18.0516 32.654 18.0516ZM32.654 21.8192C34.3368 21.8192 35.6998 22.4936 35.6998 23.3263V24.0798H29.6081V23.3263C29.6081 22.4936 30.9711 21.8192 32.654 21.8192Z" fill="#344BFD"/>
</svg>
