<svg width="24" height="24" viewBox="0 0 24 24" fill="none" xmlns="http://www.w3.org/2000/svg">
<path d="M20.0558 10.7648C20.0605 10.7168 20.0605 10.6685 20.0558 10.6205L19.1781 6.73701C19.0189 5.99579 18.6098 5.33179 18.0193 4.85625C17.4289 4.38072 16.6929 4.12254 15.9348 4.12497H8.23995C7.48336 4.12461 6.74954 4.38373 6.16094 4.85909C5.57235 5.33446 5.16458 5.9973 5.0057 6.73701L4.14003 10.6446C4.13026 10.692 4.12523 10.7404 4.125 10.7888V11.4501C4.12552 12.0966 4.36169 12.7207 4.78928 13.2055V16.7373C4.79402 17.6128 5.14389 18.451 5.76293 19.0701C6.38198 19.6891 7.22022 20.039 8.09567 20.0437H16.061C16.938 20.0437 17.7789 19.6954 18.399 19.0753C19.0191 18.4552 19.3674 17.6142 19.3674 16.7373V13.1815C19.7962 12.6973 20.0326 12.0728 20.0317 11.4261L20.0558 10.7648ZM5.45357 10.8369L6.30421 7.01355C6.39927 6.57108 6.64341 6.17469 6.99579 5.89071C7.34816 5.60673 7.78738 5.4524 8.23995 5.45354H8.76596V7.44338C8.76596 7.61956 8.83595 7.78852 8.96053 7.9131C9.0851 8.03767 9.25407 8.10766 9.43024 8.10766C9.60642 8.10766 9.77539 8.03767 9.89996 7.9131C10.0245 7.78852 10.0945 7.61956 10.0945 7.44338V5.45354H14.0832V7.44338C14.0771 7.53417 14.0897 7.62525 14.1202 7.71097C14.1508 7.79669 14.1986 7.87522 14.2608 7.94169C14.3229 8.00816 14.398 8.06116 14.4815 8.09739C14.565 8.13362 14.655 8.15232 14.746 8.15232C14.837 8.15232 14.927 8.13362 15.0105 8.09739C15.094 8.06116 15.1691 8.00816 15.2313 7.94169C15.2934 7.87522 15.3412 7.79669 15.3718 7.71097C15.4023 7.62525 15.4149 7.53417 15.4088 7.44338V5.45354H15.9348C16.3886 5.45144 16.8294 5.60524 17.1834 5.88921C17.5374 6.17317 17.7832 6.57009 17.8796 7.01355L18.7272 10.8369V11.4381C18.7232 11.787 18.5818 12.1204 18.3337 12.3657C18.0855 12.6111 17.7506 12.7486 17.4016 12.7486H16.7374C16.385 12.7486 16.0471 12.6086 15.7979 12.3595C15.5488 12.1103 15.4088 11.7724 15.4088 11.4201C15.3975 11.252 15.3227 11.0945 15.1997 10.9795C15.0766 10.8644 14.9145 10.8004 14.746 10.8004C14.5776 10.8004 14.4154 10.8644 14.2924 10.9795C14.1693 11.0945 14.0946 11.252 14.0832 11.4201C14.0832 11.595 14.0487 11.7683 13.9815 11.9299C13.9144 12.0914 13.816 12.2382 13.692 12.3616C13.568 12.4851 13.4208 12.5828 13.2589 12.6492C13.097 12.7156 12.9236 12.7494 12.7487 12.7486H11.4261C11.2518 12.7486 11.0792 12.7142 10.9181 12.6474C10.7571 12.5806 10.6109 12.4827 10.4877 12.3593C10.3646 12.2359 10.267 12.0894 10.2006 11.9282C10.1341 11.7671 10.1001 11.5944 10.1005 11.4201C10.1005 11.2439 10.0306 11.0749 9.90597 10.9503C9.7814 10.8258 9.61243 10.7558 9.43626 10.7558C9.26008 10.7558 9.09111 10.8258 8.96654 10.9503C8.84196 11.0749 8.77197 11.2439 8.77197 11.4201C8.77197 11.7724 8.632 12.1103 8.38284 12.3595C8.13369 12.6086 7.79576 12.7486 7.44341 12.7486H6.78213C6.42977 12.7486 6.09185 12.6086 5.84269 12.3595C5.59354 12.1103 5.45357 11.7724 5.45357 11.4201V10.8369ZM16.0731 18.7302H8.10769C7.84613 18.7302 7.58713 18.6786 7.34552 18.5784C7.1039 18.4782 6.88441 18.3314 6.6996 18.1463C6.51478 17.9612 6.36827 17.7415 6.26845 17.4997C6.16863 17.258 6.11745 16.9989 6.11785 16.7373V13.999C6.335 14.0542 6.55809 14.0824 6.78213 14.0832H7.44341C7.82061 14.0833 8.1935 14.0029 8.53717 13.8474C8.88083 13.6919 9.18735 13.4649 9.43626 13.1815C9.68458 13.4648 9.99056 13.6918 10.3337 13.8474C10.6769 14.0029 11.0493 14.0833 11.4261 14.0832H12.7487C13.1255 14.0837 13.498 14.0034 13.8413 13.8479C14.1845 13.6923 14.4904 13.4651 14.7385 13.1815C14.9874 13.4649 15.2939 13.6919 15.6376 13.8474C15.9812 14.0029 16.3541 14.0833 16.7313 14.0832H17.3956C17.6196 14.0822 17.8427 14.054 18.0599 13.999V16.7373C18.0599 17.2648 17.8508 17.7708 17.4783 18.1444C17.1059 18.5179 16.6006 18.7286 16.0731 18.7302Z" fill="#979797" stroke="#979797" stroke-width="0.2"/>
</svg>
